<?xml version="1.0" encoding="UTF-8"?>
<svg width="64" height="64" viewBox="0 0 64 64" xmlns="http://www.w3.org/2000/svg">
  <!-- Background gradient -->
  <defs>
    <linearGradient id="bgGradient" x1="0%" y1="0%" x2="100%" y2="100%">
      <stop offset="0%" stop-color="#4F46E5" />
      <stop offset="100%" stop-color="#7C3AED" />
    </linearGradient>
    <!-- Glow effect -->
    <filter id="glow" x="-20%" y="-20%" width="140%" height="140%">
      <feGaussianBlur stdDeviation="2" result="blur" />
      <feComposite in="SourceGraphic" in2="blur" operator="over" />
    </filter>
  </defs>

  <!-- Rounded square background -->
  <rect width="64" height="64" rx="16" fill="url(#bgGradient)" />

  <!-- N letter with circuit/tech styling -->
  <g fill="white" filter="url(#glow)">
    <!-- Main N shape -->
    <path d="M22 18v28h4V26.3L40 46h4V18h-4v19.7L26 18z" />
    
    <!-- Circuit nodes/dots -->
    <circle cx="22" cy="18" r="2.5" />
    <circle cx="26" cy="18" r="1.5" />
    <circle cx="22" cy="46" r="2.5" />
    <circle cx="40" cy="46" r="2.5" />
    <circle cx="44" cy="18" r="2.5" />
    <circle cx="44" cy="46" r="1.5" />
    
    <!-- Circuit lines -->
    <rect x="16" y="18" width="4" height="1.5" />
    <rect x="44" y="18" width="4" height="1.5" />
    <rect x="16" y="46" width="4" height="1.5" />
    <rect x="44" y="46" width="4" height="1.5" />
  </g>
  
  <!-- Sparkles -->
  <circle cx="16" cy="25" r="1" fill="white" opacity="0.8" />
  <circle cx="48" cy="32" r="1" fill="white" opacity="0.8" />
  <circle cx="20" cy="38" r="1" fill="white" opacity="0.8" />
</svg> 