<?xml version="1.0" encoding="UTF-8"?>
<svg width="192" height="192" viewBox="0 0 192 192" xmlns="http://www.w3.org/2000/svg">
  <!-- Background gradient -->
  <defs>
    <linearGradient id="bgGradient" x1="0%" y1="0%" x2="100%" y2="100%">
      <stop offset="0%" stop-color="#4F46E5" />
      <stop offset="100%" stop-color="#7C3AED" />
    </linearGradient>
    <!-- Glow effect -->
    <filter id="glow" x="-20%" y="-20%" width="140%" height="140%">
      <feGaussianBlur stdDeviation="4" result="blur" />
      <feComposite in="SourceGraphic" in2="blur" operator="over" />
    </filter>
  </defs>

  <!-- Rounded square background -->
  <rect width="192" height="192" rx="48" fill="url(#bgGradient)" />

  <!-- N letter with circuit/tech styling -->
  <g fill="white" filter="url(#glow)">
    <!-- Main N shape -->
    <path d="M64 54v84h12V78L128 138h12V54h-12v60L76 54z" />
    
    <!-- Circuit nodes/dots -->
    <circle cx="64" cy="54" r="7" />
    <circle cx="76" cy="54" r="5" />
    <circle cx="64" cy="138" r="7" />
    <circle cx="128" cy="138" r="7" />
    <circle cx="140" cy="54" r="7" />
    <circle cx="140" cy="138" r="5" />
    
    <!-- Circuit lines -->
    <rect x="48" y="54" width="14" height="4" />
    <rect x="140" y="54" width="14" height="4" />
    <rect x="48" y="138" width="14" height="4" />
    <rect x="140" y="138" width="14" height="4" />
  </g>
  
  <!-- Sparkles -->
  <circle cx="48" cy="75" r="3" fill="white" opacity="0.8" />
  <circle cx="144" cy="96" r="3" fill="white" opacity="0.8" />
  <circle cx="58" cy="117" r="3" fill="white" opacity="0.8" />
</svg> 