<?xml version="1.0" encoding="UTF-8"?>
<svg width="512" height="512" viewBox="0 0 512 512" xmlns="http://www.w3.org/2000/svg">
  <!-- Background gradient -->
  <defs>
    <linearGradient id="bgGradient" x1="0%" y1="0%" x2="100%" y2="100%">
      <stop offset="0%" stop-color="#4F46E5" />
      <stop offset="100%" stop-color="#7C3AED" />
    </linearGradient>
    <!-- Glow effect -->
    <filter id="glow" x="-20%" y="-20%" width="140%" height="140%">
      <feGaussianBlur stdDeviation="8" result="blur" />
      <feComposite in="SourceGraphic" in2="blur" operator="over" />
    </filter>
  </defs>

  <!-- Rounded square background -->
  <rect width="512" height="512" rx="128" fill="url(#bgGradient)" />

  <!-- N letter with circuit/tech styling -->
  <g fill="white" filter="url(#glow)">
    <!-- Main N shape -->
    <path d="M170 143v226h32V208L342 369h32V143h-32v158L204 143z" />
    
    <!-- Circuit nodes/dots -->
    <circle cx="170" cy="143" r="20" />
    <circle cx="204" cy="143" r="14" />
    <circle cx="170" cy="369" r="20" />
    <circle cx="342" cy="369" r="20" />
    <circle cx="374" cy="143" r="20" />
    <circle cx="374" cy="369" r="14" />
    
    <!-- Circuit lines -->
    <rect x="128" y="143" width="40" height="10" />
    <rect x="374" y="143" width="40" height="10" />
    <rect x="128" y="369" width="40" height="10" />
    <rect x="374" y="369" width="40" height="10" />
  </g>
  
  <!-- Sparkles -->
  <circle cx="128" cy="200" r="8" fill="white" opacity="0.8" />
  <circle cx="384" cy="256" r="8" fill="white" opacity="0.8" />
  <circle cx="154" cy="312" r="8" fill="white" opacity="0.8" />
  
  <!-- Additional tech circuit elements -->
  <circle cx="256" cy="100" r="5" fill="white" opacity="0.6" />
  <circle cx="256" cy="412" r="5" fill="white" opacity="0.6" />
  <line x1="256" y1="100" x2="256" y2="115" stroke="white" stroke-width="2" opacity="0.6" />
  <line x1="256" y1="412" x2="256" y2="397" stroke="white" stroke-width="2" opacity="0.6" />
  
  <circle cx="100" cy="256" r="5" fill="white" opacity="0.6" />
  <circle cx="412" cy="256" r="5" fill="white" opacity="0.6" />
  <line x1="100" y1="256" x2="115" y2="256" stroke="white" stroke-width="2" opacity="0.6" />
  <line x1="412" y1="256" x2="397" y2="256" stroke="white" stroke-width="2" opacity="0.6" />
</svg> 